# xmcd CD database file
#
# Track frame offsets:
#	150
#	20610
#	36075
#	47937
#	61387
#	78142
#	94492
#	109897
#	124227
#	143147
#
# Disc length: 2134 seconds
#
# Revision: 3
# Processed by: cddbd v1.5.1PL0 Copyright (c) Steve Scherf et al.
# Submitted via: CDex 1.51
#
DISCID=8a08540a
DTITLE=Frazier River - Frazier River
DYEAR=1996
DGENRE=Country
TTITLE0=Everything About You
TTITLE1=That's Why I'm Here
TTITLE2=Money Don't Make People
TTITLE3=She Got What She Deserves
TTITLE4=Last Request
TTITLE5=I Don't Want To See You Again
TTITLE6=Tangled Up In Texas
TTITLE7=Birmingham Steel
TTITLE8=Heaven Is Smiling
TTITLE9=It Won't Bring Her Back
EXTD=YEAR: 1996
EXTT0=
EXTT1=
EXTT2=
EXTT3=
EXTT4=
EXTT5=
EXTT6=
EXTT7=
EXTT8=
EXTT9=
PLAYORDER=
